<mxfile host="app.diagrams.net" modified="2024-05-26T03:01:57.897Z" agent="Mozilla/5.0 (Windows NT 10.0; Win64; x64) AppleWebKit/537.36 (KHTML, like Gecko) Chrome/125.0.0.0 Safari/537.36" version="24.4.8" etag="zDNlk-tCz3bMPZfTPsOl" type="github">
  <diagram name="Trang-1" id="YPvp8GaPo5NsThWjmM7N">
    <mxGraphModel>
      <root>
        <mxCell id="0" />
        <mxCell id="1" parent="0" />
      </root>
    </mxGraphModel>
  </diagram>
</mxfile>
